<?xml version="1.0" encoding="iso-8859-1"?>
<!-- Generator: Adobe Illustrator 19.0.0, SVG Export Plug-In . SVG Version: 6.00 Build 0)  -->
<svg xmlns="http://www.w3.org/2000/svg" xmlns:xlink="http://www.w3.org/1999/xlink" version="1.1" id="Capa_1" x="0px" y="0px" viewBox="0 0 512 512" style="enable-background:new 0 0 512 512;" xml:space="preserve" width="512px" height="512px">
<g>
	<g>
		<path d="M427.437,129.166H322.182V99.732c0-36.492-29.69-66.182-66.182-66.182c-36.492,0-66.182,29.69-66.182,66.182v29.434    H84.564L0,478.451h512L427.437,129.166z M219.887,99.732c0-19.912,16.201-36.113,36.113-36.113    c19.912,0,36.113,16.201,36.113,36.113v29.434h-72.225V99.732z M108.222,159.235h295.557l70.003,289.146H38.219L108.222,159.235z" fill="#ff8702"/>
	</g>
</g>
<g>
	<g>
		<polygon points="218.779,311.427 254.88,266.931 226.896,266.931 193.872,307.51 193.872,266.931 166.587,266.931     166.587,366.279 193.872,366.279 193.872,336.755 202.688,326.679 228.854,366.279 257.399,366.279   " fill="#ff8702"/>
	</g>
</g>
<g>
	<g>
		<path d="M306.374,310.588v23.788h15.532c-2.519,4.337-9.235,8.395-16.931,8.395c-14.692,0-19.73-14.692-19.73-26.306    c0-12.874,6.297-26.027,19.87-26.027c12.314,0,17.211,11.055,18.051,13.013l21.688-16.931    c-7.416-13.153-20.989-20.289-38.06-20.289c-30.924,0-49.254,24.346-49.254,49.534c0,26.586,20.569,51.214,50.233,51.214    c26.586,0,43.657-19.87,43.657-43.938v-12.453H306.374z" fill="#ff8702"/>
	</g>
</g>
<g>
</g>
<g>
</g>
<g>
</g>
<g>
</g>
<g>
</g>
<g>
</g>
<g>
</g>
<g>
</g>
<g>
</g>
<g>
</g>
<g>
</g>
<g>
</g>
<g>
</g>
<g>
</g>
<g>
</g>
</svg>
